<?xml version="1.0" encoding="utf-8"?>
<!-- Generator: Adobe Illustrator 23.0.5, SVG Export Plug-In . SVG Version: 6.00 Build 0)  -->
<svg version="1.1" id="Capa_1" xmlns="http://www.w3.org/2000/svg" xmlns:xlink="http://www.w3.org/1999/xlink" x="0px" y="0px"
	 viewBox="0 0 96 96" style="enable-background:new 0 0 96 96;" xml:space="preserve">
<style type="text/css">
	.st0{fill-rule:evenodd;clip-rule:evenodd;fill:url(#SVGID_1_);}
	.st1{fill-rule:evenodd;clip-rule:evenodd;fill:url(#SVGID_2_);}
</style>
<g>
	<g>
		<linearGradient id="SVGID_1_" gradientUnits="userSpaceOnUse" x1="48" y1="87.9698" x2="48" y2="8.0299">
			<stop  offset="0" style="stop-color:#BBD532"/>
			<stop  offset="0.1033" style="stop-color:#C6C92E"/>
			<stop  offset="0.3192" style="stop-color:#DFAB26"/>
			<stop  offset="0.5228" style="stop-color:#F6871F"/>
			<stop  offset="0.7089" style="stop-color:#E77360"/>
			<stop  offset="1" style="stop-color:#D14B9B"/>
		</linearGradient>
		<path class="st0" d="M48,8.03C25.96,8.03,8.03,25.96,8.03,48c0,22.04,17.93,39.97,39.97,39.97c22.04,0,39.97-17.93,39.97-39.97
			C87.97,25.96,70.04,8.03,48,8.03z M48,80.97c-18.18,0-32.97-14.79-32.97-32.97S29.82,15.03,48,15.03S80.97,29.82,80.97,48
			S66.18,80.97,48,80.97z"/>
		<linearGradient id="SVGID_2_" gradientUnits="userSpaceOnUse" x1="47.9999" y1="66.958" x2="47.9999" y2="29.0414">
			<stop  offset="0" style="stop-color:#BBD532"/>
			<stop  offset="0.1033" style="stop-color:#C6C92E"/>
			<stop  offset="0.3192" style="stop-color:#DFAB26"/>
			<stop  offset="0.5228" style="stop-color:#F6871F"/>
			<stop  offset="0.7089" style="stop-color:#E77360"/>
			<stop  offset="1" style="stop-color:#D14B9B"/>
		</linearGradient>
		<path class="st1" d="M56.33,29.04H49.9c-3.77,0-6.83,3.06-6.83,6.83v5.41h-3.4c-0.26,0-0.48,0.21-0.48,0.48v5.61
			c0,0.26,0.21,0.48,0.48,0.48h3.4v0.3v18.33c0,0.26,0.21,0.48,0.48,0.48h6.81c0.26,0,0.48-0.21,0.48-0.48V47.85h4.94
			c0.25,0,0.45-0.19,0.48-0.44l0.47-5.61c0.02-0.28-0.2-0.52-0.48-0.52h-5.41V37.3c0-0.93,0.76-1.69,1.69-1.69h3.8
			c0.26,0,0.48-0.21,0.48-0.48v-5.61C56.81,29.26,56.59,29.04,56.33,29.04z"/>
	</g>
</g>
</svg>
